<svg width="9088" height="6968" viewBox="0 0 9088 6968" fill="none" xmlns="http://www.w3.org/2000/svg">
<path d="M6433.45 3491.08C6442.45 3483.52 6451.75 3476.25 6461.41 3469.57C6511.79 3434.74 6541.76 3428.97 6617.88 3458.12C6852.53 3547.98 7034.5 3362.36 7161.23 3186.85C7264.99 3043.15 7258.65 2862.01 7390.34 2739.09C7480 2641.39 7542.4 2543.09 7590.06 2416.15C7630.43 2298 7533.91 2190.04 7414.31 2217.26C7319.01 2238.83 7316.97 2351.34 7231.03 2394.3C7078.45 2471.93 6961.23 2352.82 6781.11 2327.22C6619.77 2299.09 6451.99 2342.29 6308.04 2413.16C6092.7 2528.91 6074.42 2364.15 5830.31 2343.54C5708.98 2336.69 5586.77 2324.32 5465.38 2317.15C5332.3 2312.23 5197.85 2353.17 5069.13 2421.34C5002.61 2455.01 4915.55 2509.61 4847.74 2512.81C4716.43 2511.47 4672.91 2344.96 4536.43 2327.94C4458.45 2315.34 4376.92 2349.65 4325.13 2409.4C4210.68 2535.82 4266.11 2744.66 4274.97 2898.27C4281.13 2995.66 4268.6 3093.22 4230.95 3183.92C4165.85 3328.68 4036.16 3453.21 3972.85 3233.72C3927.93 3078.01 3925.63 2770.08 3893.94 2610.02C3878.42 2533.71 3856.95 2472.88 3823.04 2430.62C3741.76 2323.74 3586.1 2354.76 3499.14 2438.94C3400.62 2527.04 3331.98 2737.93 3268.75 2873.03C3226.91 2949.13 3146.08 3188.08 3054.31 3183.65C3012.91 3182.02 2983.34 3042 2976.97 2966.01C2945.39 2734.13 2968.92 2333.7 2730.28 2246.51C2578.91 2210.55 2637.96 2424.26 2094.61 2238.51C1791.72 2134.97 1518.47 2374.28 1429.11 2463.22C1258.59 2632.94 1197.51 2881.91 1309.02 3092.05C1399.21 3298.93 1712.08 3448.42 1660.78 3674.32C1642.6 3754.38 1557.03 3750.46 1491.93 3724.54C1406.06 3690.35 1391.44 3518.35 1244.96 3524.22C1065.15 3529.86 1038.78 3842.09 1156.53 3952.62C1349.96 4163.38 1822.7 4116.82 2045.79 3973.8C2266.24 3847.96 2334.29 3487.92 2197.13 3273.38C2090 3083.2 1945.09 3041.65 1878.8 2845.77C1858.24 2786.86 1831.91 2703.95 1904.72 2644.22C2000.94 2565.28 2055.91 2737.18 2141.46 2795.78C2240.08 2873.22 2307.74 2820.09 2381.02 2900.65C2447.53 2973.77 2434.85 3105.17 2455.34 3233.66C2476.36 3376.33 2495.65 3643.84 2517.87 3786.23C2567.61 4205.04 2885.38 4159.22 3058.73 3851.65C3129.77 3752.64 3232.85 3353.55 3346.47 3353.04C3456.54 3397.79 3447.91 3783.32 3498.6 3907.17C3524.83 3987.06 3573.97 4062.86 3656.27 4083.76C3774.36 4110.72 3890.17 4032.4 3978.79 3956.12C4061.77 3895.09 4178.25 3698.55 4280.48 3769.53C4355.49 3834.26 4392.67 3926.44 4455.4 4005.75C4538.21 4110.46 4731.76 4124.32 4926.94 4074.52C5195.91 4005.89 5194.9 3956.9 5413.4 4052.22C5448.01 4067.32 5482.64 4084.27 5519.87 4090.17C5625.64 4106.93 5714.58 4070.89 5754.46 4051.33C5772.84 4042.31 5791.73 4055.94 5794.05 4069.54C5795.63 4078.81 5796.14 4093.84 5796.86 4103.23C5799.13 4132.67 5791.05 4148.55 5754.26 4180.99C5695.52 4232.8 5663.9 4294.46 5652.09 4361.56C5598.92 4663.71 5937.08 4745.1 6164.3 4753.94C6583.91 4765.07 7018.88 4686.55 7266.24 4378.47C7423.8 4164.09 7356.35 3876.45 7094.31 3772.86C7003.6 3732.37 6895.97 3712.12 6795.45 3699.02C6663.76 3680.66 6558.61 3687.72 6442.24 3637.82C6384.45 3615.59 6342.51 3581.3 6381.99 3534.36L6433.47 3491.11L6433.45 3491.08ZM6666.05 2581.67C6925.42 2611.63 7029.13 2954.62 6983.14 3085.51C6906.32 3352.83 6531.24 3403.31 6450.16 3090.41C6414.22 2931.82 6409.24 2600.2 6661.79 2581.59L6666.05 2581.67ZM5266.99 3473.71C5133.39 3762.61 4943.05 3960.93 4869.43 3431.22C4829.5 3138.74 4989.06 2544.49 5342.71 2565.85C5483.72 2594.99 5436.31 2743.55 5406.3 2898.82C5362.92 3072.96 5325.46 3325.51 5268.94 3469.45L5266.99 3473.72V3473.71ZM5673.56 3577.99C5691.61 3473.68 5709.98 3338.98 5753.8 3228.23C5765.51 3198.62 5781.72 3167.67 5801.44 3140.32C5833.1 3096.42 5883.33 3069.12 5937.02 3069.86C5945.6 3069.98 5963.79 3074.31 5966.8 3076.09C6078.92 3142.46 6102.71 3330.51 6026.06 3451.36C5972.85 3550.09 5913.8 3617.15 5843.3 3683.29C5736.25 3780.78 5655.25 3687.93 5672.36 3585.76L5673.57 3577.98L5673.56 3577.99ZM6705.54 4063.73C6856.9 4080.52 7066.85 4185.71 6972.79 4345.39C6919.66 4435.58 6658.95 4465.41 6472.34 4470.31C6258.44 4481.56 6113.07 4499.92 6044.51 4381.13C5993.59 4295.21 6012.73 4163.93 6103.08 4106.48C6172.34 4062.45 6208.74 4047.71 6320.3 4045.99C6443.48 4045.16 6584.25 4047.31 6698.55 4062.7L6705.53 4063.72L6705.54 4063.73ZM7374.05 3858.78C7175.67 3691.42 7119.79 3427.82 7311.8 3250.53C7426.13 3148.98 7604.99 3136.72 7742.62 3221.88C7916.91 3333.61 8055.84 3537.03 7985.14 3739.96C7900.82 3995.29 7575.54 4054.95 7376.86 3861.33L7374.06 3858.79L7374.05 3858.78ZM1906.5 4627.6C1906.5 4558.17 1951.81 4505.7 2021.24 4505.7C2048.29 4505.7 2071.11 4513.52 2087.73 4526.23C2107.94 4541.55 2119.67 4564.36 2122.61 4590.44H2064.92C2061.98 4569.58 2045.69 4553.61 2020.92 4553.61C1983.11 4553.61 1965.18 4585.22 1965.18 4627.6C1965.18 4669.98 1986.7 4701.26 2021.25 4701.26C2047 4701.26 2063.95 4684.96 2066.55 4662.47H2124.24C2122.61 4685.61 2112.18 4706.8 2096.21 4722.12C2078.28 4739.4 2054.49 4748.53 2021.57 4748.53C1953.11 4748.53 1906.5 4697.35 1906.5 4627.6ZM2135.02 4510.26H2246.5C2292.79 4510.26 2327.99 4534.05 2327.99 4577.41C2327.99 4604.46 2314.63 4624.34 2287.57 4633.79V4634.77C2307.79 4641.61 2318.21 4654.32 2321.48 4677.47C2326.37 4708.11 2323.11 4737.45 2331.25 4740.38V4743.32H2275.19C2268.99 4739.74 2269.97 4712.35 2266.38 4689.21C2263.45 4667.7 2252.36 4655.97 2227.59 4655.97H2192.71V4743.32H2135.02V4510.26ZM2236.07 4613.26C2258.89 4613.26 2270.62 4602.51 2270.62 4584.9C2270.62 4567.29 2259.53 4555.89 2237.37 4555.89H2192.71V4613.26H2236.07ZM2334.52 4627.27C2334.52 4557.51 2379.18 4505.69 2449.59 4505.69C2520 4505.69 2564.98 4557.51 2564.98 4627.27C2564.98 4697.03 2520.32 4748.86 2449.59 4748.86C2378.86 4748.86 2334.52 4697.03 2334.52 4627.27ZM2506.3 4627.27C2506.3 4584.89 2487.72 4552.3 2449.91 4552.3C2412.1 4552.3 2393.2 4584.9 2393.2 4627.27C2393.2 4669.64 2412.43 4701.92 2449.91 4701.92C2487.39 4701.92 2506.3 4669.65 2506.3 4627.27ZM2566.63 4669.98H2624.65C2627.26 4693.45 2642.58 4703.22 2670.28 4703.22C2689.19 4703.22 2707.77 4696.38 2707.77 4678.78C2707.77 4660.2 2688.86 4656.29 2656.92 4648.47C2616.5 4639.02 2573.8 4626.63 2573.8 4577.73C2573.8 4528.83 2614.21 4506.02 2666.37 4506.02C2718.53 4506.02 2756.01 4528.84 2758.29 4577.73H2701.91C2699.63 4559.8 2685.93 4549.71 2664.42 4549.71C2644.2 4549.71 2630.84 4558.51 2630.84 4571.54C2630.84 4587.84 2648.77 4591.75 2683.64 4599.57C2727 4609.68 2766.11 4623.04 2766.11 4672.91C2766.11 4722.78 2724.39 4748.86 2670.6 4748.86C2608.67 4748.86 2567.92 4721.47 2566.62 4669.98H2566.63ZM2772 4669.98H2830.02C2832.63 4693.45 2847.95 4703.22 2875.65 4703.22C2894.56 4703.22 2913.14 4696.38 2913.14 4678.78C2913.14 4660.2 2894.23 4656.29 2862.29 4648.47C2821.87 4639.02 2779.17 4626.63 2779.17 4577.73C2779.17 4528.83 2819.58 4506.02 2871.74 4506.02C2923.9 4506.02 2961.38 4528.84 2963.66 4577.73H2907.28C2905 4559.8 2891.3 4549.71 2869.79 4549.71C2849.57 4549.71 2836.21 4558.51 2836.21 4571.54C2836.21 4587.84 2854.14 4591.75 2889.01 4599.57C2932.37 4609.68 2971.48 4623.04 2971.48 4672.91C2971.48 4722.78 2929.76 4748.86 2875.97 4748.86C2814.04 4748.86 2773.29 4721.47 2771.99 4669.98H2772ZM3009.97 4510.26H3068.32L3091.79 4608.04C3097 4630.54 3102.54 4665.73 3102.54 4665.73H3103.19C3103.19 4665.73 3109.38 4633.79 3114.6 4610.32L3136.43 4510.26H3189.89L3211.73 4609.68C3216.95 4633.47 3222.81 4665.74 3222.81 4665.74H3223.46C3223.46 4665.74 3229.98 4630.54 3235.2 4607.4L3258.34 4510.27H3316.36L3252.47 4743.33H3196.09L3171.64 4631.52C3167.4 4612.94 3163.5 4588.17 3163.5 4588.17H3162.85C3162.85 4588.17 3158.94 4612.94 3155.02 4631.52L3130.58 4743.33H3073.86L3009.98 4510.27L3009.97 4510.26ZM3322.93 4510.26H3380.62V4743.32H3322.93V4510.26ZM3460.16 4559.15H3392.37V4510.26H3586.31V4559.15H3517.85V4743.32H3460.16V4559.15ZM3598.07 4510.26H3655.76V4598.59H3737.58V4510.26H3795.27V4743.32H3737.58V4646.19H3655.76V4743.32H3598.07V4510.26ZM3847.13 4669.98H3905.15C3907.76 4693.45 3923.08 4703.22 3950.78 4703.22C3969.69 4703.22 3988.27 4696.38 3988.27 4678.78C3988.27 4660.2 3969.36 4656.29 3937.42 4648.47C3897 4639.02 3854.3 4626.63 3854.3 4577.73C3854.3 4528.83 3894.71 4506.02 3946.87 4506.02C3999.03 4506.02 4036.51 4528.84 4038.79 4577.73H3982.41C3980.13 4559.8 3966.43 4549.71 3944.92 4549.71C3924.7 4549.71 3911.34 4558.51 3911.34 4571.54C3911.34 4587.84 3929.27 4591.75 3964.14 4599.57C4007.5 4609.68 4046.61 4623.04 4046.61 4672.91C4046.61 4722.78 4004.89 4748.86 3951.1 4748.86C3889.17 4748.86 3848.42 4721.47 3847.12 4669.98H3847.13ZM4037.84 4510.26H4096.19L4119.66 4608.04C4124.87 4630.54 4130.41 4665.73 4130.41 4665.73H4131.06C4131.06 4665.73 4137.25 4633.79 4142.47 4610.32L4164.3 4510.26H4217.76L4239.6 4609.68C4244.82 4633.47 4250.68 4665.74 4250.68 4665.74H4251.33C4251.33 4665.74 4257.85 4630.54 4263.07 4607.4L4286.21 4510.27H4344.23L4280.34 4743.33H4223.96L4199.51 4631.52C4195.27 4612.94 4191.37 4588.17 4191.37 4588.17H4190.72C4190.72 4588.17 4186.81 4612.94 4182.89 4631.52L4158.45 4743.33H4101.73L4037.85 4510.27L4037.84 4510.26ZM4398.38 4510.26H4457.7L4541.8 4743.32H4481.17L4467.48 4701.27H4385.99L4372.63 4743.32H4314.61L4398.38 4510.26ZM4454.12 4659.87L4436.52 4603.48C4432.6 4591.43 4427.38 4570.57 4427.38 4570.57H4426.73C4426.73 4570.57 4421.19 4591.43 4417.28 4603.48L4399.35 4659.87H4454.11H4454.12ZM4555.85 4715.94C4535.63 4693.77 4524.55 4663.14 4524.55 4627.6C4524.55 4592.06 4536.94 4558.83 4559.1 4536.66C4578.33 4517.11 4605.39 4505.7 4638.96 4505.7C4698.94 4505.7 4734.79 4537.64 4742.28 4586.54H4686.21C4681.97 4567.63 4666.33 4553.29 4640.91 4553.29C4602.44 4553.29 4583.22 4585.23 4583.22 4627.61C4583.22 4669.99 4605.38 4701.93 4641.89 4701.93C4672.2 4701.93 4690.14 4681.72 4692.42 4661.18V4660.53H4648.73V4618.15H4745.87V4743.32H4705.45L4702.19 4715.29H4701.54C4686.21 4739.09 4663.4 4748.54 4635.37 4748.54C4602.13 4748.54 4575.07 4736.8 4555.84 4715.94H4555.85Z" fill="#575D61"/>
</svg>
