<?xml version="1.0" encoding="UTF-8"?>
<svg id="Layer_1" data-name="Layer 1" xmlns="http://www.w3.org/2000/svg" viewBox="0 0 1540.82 1080">
  <defs>
    <style>
      .cls-1 {
        fill: none;
        stroke: #fff;
        stroke-miterlimit: 10;
        stroke-width: 2px;
      }
    </style>
  </defs>
  <path class="cls-1" d="M1054.52,541.07c1.35-1.14,2.75-2.23,4.2-3.23,7.58-5.24,12.08-6.11,23.53-1.72,35.29,13.51,62.66-14.4,81.72-40.8,15.61-21.61,14.65-48.86,34.46-67.35,13.49-14.69,22.87-29.48,30.04-48.57,6.07-17.77-8.44-34.01-26.43-29.91-14.33,3.24-14.64,20.17-27.57,26.63-22.95,11.68-40.58-6.24-67.67-10.09-24.27-4.23-49.5,2.27-71.15,12.93-32.39,17.41-35.14-7.37-71.85-10.47-18.25-1.03-36.63-2.89-54.89-3.97-20.02-.74-40.24,5.42-59.6,15.67-10,5.06-23.1,13.28-33.3,13.76-19.75-.2-26.3-25.25-46.82-27.81-11.73-1.89-23.99,3.26-31.78,12.25-17.21,19.01-8.88,50.42-7.54,73.53.93,14.65-.96,29.32-6.62,42.96-9.79,21.77-29.3,40.5-38.82,7.49-6.76-23.42-7.1-69.73-11.87-93.81-2.33-11.48-5.56-20.63-10.66-26.98-12.22-16.08-35.64-11.41-48.72,1.25-14.82,13.25-25.14,44.97-34.65,65.29-6.29,11.45-18.45,47.39-32.25,46.72-6.23-.25-10.67-21.31-11.63-32.73-4.75-34.88-1.21-95.1-37.1-108.22-22.77-5.41-13.88,26.74-95.61-1.2-45.56-15.57-86.66,20.42-100.1,33.8-25.65,25.53-34.83,62.97-18.06,94.58,13.57,31.12,60.62,53.6,52.91,87.58-2.73,12.04-15.6,11.45-25.4,7.55-12.92-5.14-15.11-31.01-37.15-30.13-27.04.85-31.01,47.81-13.3,64.43,29.09,31.7,100.2,24.7,133.75,3.19,33.16-18.93,43.39-73.08,22.76-105.35-16.11-28.6-37.91-34.85-47.88-64.31-3.09-8.86-7.05-21.33,3.9-30.31,14.47-11.87,22.74,13.98,35.61,22.8,14.83,11.65,25.01,3.66,36.03,15.77,10,11,8.1,30.76,11.18,50.09,3.16,21.46,6.06,61.69,9.41,83.11,7.48,62.99,55.28,56.1,81.35,9.84,10.68-14.89,26.19-74.92,43.28-74.99,16.56,6.73,15.26,64.72,22.88,83.34,3.95,12.02,11.34,23.42,23.71,26.56,17.76,4.05,35.18-7.72,48.51-19.2,12.48-9.18,30-38.74,45.38-28.06,11.28,9.74,16.87,23.6,26.31,35.53,12.46,15.75,41.57,17.83,70.92,10.34,40.45-10.32,40.3-17.69,73.17-3.35,5.21,2.27,10.41,4.82,16.01,5.71,15.91,2.52,29.29-2.9,35.28-5.84,2.77-1.36,5.61.69,5.95,2.74.24,1.39.31,3.66.42,5.07.34,4.43-.87,6.82-6.41,11.7-8.84,7.79-13.59,17.07-15.37,27.16-8,45.45,42.86,57.69,77.04,59.02,63.11,1.67,128.53-10.14,165.74-56.47,23.7-32.24,13.55-75.51-25.86-91.09-13.64-6.09-29.83-9.14-44.95-11.11-19.81-2.76-35.62-1.7-53.13-9.21-8.69-3.34-15-8.5-9.06-15.56l7.74-6.51ZM1089.51,404.29c39.01,4.51,54.61,56.09,47.69,75.78-11.55,40.21-67.97,47.8-80.16.74-5.41-23.85-6.15-73.73,31.83-76.53h.64ZM879.08,538.46c-20.09,43.45-48.72,73.28-59.8-6.39-6.01-43.99,17.99-133.37,71.18-130.16,21.21,4.38,14.08,26.73,9.56,50.08-6.52,26.19-12.16,64.18-20.66,85.83l-.29.64ZM940.23,554.14c2.71-15.69,5.48-35.95,12.07-52.61,1.76-4.45,4.2-9.11,7.17-13.22,4.76-6.6,12.32-10.71,20.39-10.6,1.29.02,4.03.67,4.48.94,16.86,9.98,20.44,38.27,8.91,56.44-8,14.85-16.88,24.94-27.49,34.88-16.1,14.66-28.28.7-25.71-14.67l.18-1.17ZM1095.45,627.2c22.77,2.53,54.34,18.35,40.2,42.36-7.99,13.57-47.2,18.05-75.27,18.79-32.17,1.69-54.04,4.45-64.35-13.41-7.66-12.92-4.78-32.67,8.81-41.31,10.42-6.62,15.89-8.84,32.67-9.1,18.53-.13,39.7.2,56.89,2.51l1.05.15ZM1196,596.38c-29.84-25.17-38.24-64.82-9.36-91.49,17.2-15.27,44.1-17.12,64.8-4.31,26.21,16.81,47.11,47.4,36.48,77.92-12.68,38.4-61.61,47.38-91.49,18.25l-.42-.38Z"/>
</svg>
